<svg xmlns="http://www.w3.org/2000/svg" xmlns:xlink="http://www.w3.org/1999/xlink" width="500" zoomAndPan="magnify" viewBox="0 0 375 374.999991" height="500" preserveAspectRatio="xMidYMid meet" version="1.0"><defs><clipPath id="4c0698d0a1"><path d="M 259 62 L 363.75 62 L 363.75 158 L 259 158 Z M 259 62 " clip-rule="nonzero"/></clipPath><clipPath id="61d1d132f0"><path d="M 11.25 284 L 87 284 L 87 356 L 11.25 356 Z M 11.25 284 " clip-rule="nonzero"/></clipPath></defs><path fill="#7d9e37" d="M 82.402344 233.355469 L 200.953125 233.355469 L 200.953125 351.90625 L 82.402344 351.90625 Z M 82.402344 233.355469 " fill-opacity="1" fill-rule="nonzero"/><path fill="#517b45" d="M 154.699219 117.328125 L 273.25 117.328125 L 273.25 235.878906 L 154.699219 235.878906 Z M 154.699219 117.328125 " fill-opacity="1" fill-rule="nonzero"/><path fill="#7d9e37" d="M 246.117188 118.5625 L 127.566406 118.5625 L 186.84375 0.0117188 Z M 246.117188 118.5625 " fill-opacity="1" fill-rule="nonzero"/><path fill="#000000" d="M 266.761719 216.34375 L 271.726562 230.015625 L 245.199219 230.015625 L 240.230469 216.34375 L 234.199219 216.34375 L 287.714844 363.40625 L 293.746094 363.40625 L 288.78125 349.734375 L 315.308594 349.734375 L 320.273438 363.40625 L 326.304688 363.40625 L 272.792969 216.34375 Z M 273.792969 235.652344 L 280.035156 252.808594 L 253.507812 252.808594 L 247.265625 235.652344 Z M 270.121094 298.433594 L 263.878906 281.277344 L 290.40625 281.277344 L 296.648438 298.433594 Z M 298.714844 304.109375 L 304.953125 321.265625 L 278.425781 321.265625 L 272.1875 304.109375 Z M 261.8125 275.621094 L 255.574219 258.464844 L 282.101562 258.464844 L 288.339844 275.621094 Z M 286.714844 344.078125 L 280.472656 326.921875 L 307 326.921875 L 313.242188 344.078125 Z M 286.714844 344.078125 " fill-opacity="1" fill-rule="nonzero"/><path fill="#000000" d="M 109.636719 238.21875 L 101.6875 238.21875 C 95.59375 238.21875 90.625 233.269531 90.625 227.15625 L 91.625 215.09375 L 119.425781 214.550781 L 120.660156 227.15625 C 120.699219 233.269531 115.753906 238.21875 109.636719 238.21875 Z M 109.636719 238.21875 " fill-opacity="1" fill-rule="nonzero"/><path fill="#e6d06a" d="M 101.25 227.074219 C 103.167969 227.425781 104.503906 229.140625 104.398438 231.078125 C 103.816406 241.578125 101.457031 272.636719 101.457031 272.636719 C 101.457031 272.636719 100.683594 283.632812 95.570312 283.089844 C 90.457031 282.550781 96.761719 273.179688 96.761719 273.179688 C 96.761719 273.179688 94.257812 242.246094 94.800781 237.570312 C 95.089844 234.984375 96.070312 231.832031 96.886719 229.554688 C 97.53125 227.78125 99.390625 226.71875 101.25 227.074219 Z M 101.25 227.074219 " fill-opacity="1" fill-rule="nonzero"/><path fill="#e6d06a" d="M 109.910156 226.59375 C 107.988281 226.949219 106.652344 228.660156 106.757812 230.601562 C 107.34375 241.097656 109.703125 272.15625 109.703125 272.15625 C 109.703125 272.15625 110.472656 283.15625 115.585938 282.613281 C 120.699219 282.070312 114.398438 272.699219 114.398438 272.699219 C 114.398438 272.699219 116.902344 241.765625 116.359375 237.089844 C 116.066406 234.503906 115.085938 231.351562 114.273438 229.074219 C 113.644531 227.300781 111.789062 226.238281 109.910156 226.59375 Z M 109.910156 226.59375 " fill-opacity="1" fill-rule="nonzero"/><path fill="#000000" d="M 92.816406 159.429688 C 92.710938 159.992188 87.179688 194.867188 87.179688 194.867188 C 87.179688 194.867188 112.144531 191.339844 111.957031 191.339844 C 111.765625 191.339844 110.410156 154.710938 110.054688 154.898438 C 109.679688 155.066406 92.816406 159.429688 92.816406 159.429688 Z M 92.816406 159.429688 " fill-opacity="1" fill-rule="nonzero"/><path fill="#000000" d="M 113.625 157.527344 C 113.625 157.527344 112.914062 148.972656 104.753906 149.304688 C 96.613281 149.640625 93.734375 155.234375 92.816406 159.429688 C 91.875 163.621094 92.253906 173.015625 100.957031 173.140625 C 109.660156 173.285156 113.625 157.527344 113.625 157.527344 Z M 113.625 157.527344 " fill-opacity="1" fill-rule="nonzero"/><path fill="#e6d06a" d="M 106.640625 181.382812 L 101.027344 181.382812 L 101.027344 170.71875 L 106.640625 170.71875 Z M 106.640625 181.382812 " fill-opacity="1" fill-rule="nonzero"/><path fill="#e6d06a" d="M 113.625 160.867188 C 113.542969 161.078125 113.894531 165.75 112.371094 169.363281 C 111.683594 171.03125 110.578125 172.472656 108.867188 173.140625 C 107.988281 173.472656 106.96875 173.621094 105.734375 173.496094 C 105.734375 173.496094 99.703125 174.164062 97.242188 167.210938 C 97.242188 167.210938 94.695312 167.253906 94.089844 164.582031 C 93.464844 161.910156 95.382812 160.804688 96.824219 162.183594 C 96.824219 162.183594 97.742188 154.023438 105.066406 154.167969 C 112.371094 154.292969 113.625 160.867188 113.625 160.867188 Z M 113.625 160.867188 " fill-opacity="1" fill-rule="nonzero"/><path fill="#000000" d="M 100.164062 162.140625 C 100.058594 162.015625 100.078125 161.847656 100.183594 161.746094 C 101.394531 160.699219 102.542969 161.242188 102.917969 161.429688 C 102.9375 161.453125 102.960938 161.453125 102.980469 161.453125 C 103.042969 161.453125 103.125 161.492188 103.167969 161.554688 C 103.273438 161.683594 103.25 161.847656 103.148438 161.953125 C 103 162.078125 102.835938 162.015625 102.667969 161.933594 C 102.3125 161.765625 101.476562 161.367188 100.558594 162.160156 C 100.496094 162.203125 100.433594 162.222656 100.371094 162.222656 C 100.289062 162.246094 100.226562 162.203125 100.164062 162.140625 Z M 102.773438 161.515625 Z M 102.773438 161.515625 Z M 102.773438 161.515625 Z M 102.773438 161.515625 Z M 102.773438 161.515625 Z M 102.773438 161.515625 Z M 102.773438 161.515625 Z M 102.773438 161.515625 Z M 102.773438 161.515625 Z M 102.773438 161.515625 Z M 102.773438 161.515625 Z M 102.773438 161.515625 Z M 102.773438 161.515625 Z M 102.773438 161.515625 " fill-opacity="1" fill-rule="nonzero"/><path fill="#000000" d="M 112.058594 163.269531 C 112.121094 163.269531 112.183594 163.246094 112.226562 163.207031 C 112.351562 163.121094 112.371094 162.933594 112.289062 162.808594 C 112.246094 162.746094 111.226562 161.390625 109.410156 161.890625 C 109.261719 161.933594 109.160156 162.097656 109.199219 162.246094 C 109.242188 162.390625 109.386719 162.496094 109.554688 162.453125 C 110.996094 162.058594 111.832031 163.144531 111.832031 163.164062 C 111.871094 163.226562 111.957031 163.269531 112.058594 163.269531 Z M 112.058594 163.269531 " fill-opacity="1" fill-rule="nonzero"/><path fill="#000000" d="M 105.820312 169.277344 C 105.671875 169.257812 105.570312 169.113281 105.589844 168.964844 C 105.609375 168.820312 105.757812 168.695312 105.902344 168.714844 C 105.921875 168.714844 106.339844 168.757812 106.675781 168.089844 C 106.945312 167.527344 106.320312 166.503906 106.070312 166.128906 C 105.945312 165.917969 105.902344 165.855469 105.902344 165.75 C 105.921875 165.605469 106.070312 165.480469 106.214844 165.5 C 106.339844 165.523438 106.425781 165.585938 106.464844 165.710938 C 106.488281 165.730469 106.507812 165.792969 106.550781 165.855469 C 106.863281 166.355469 107.59375 167.527344 107.175781 168.382812 C 106.738281 169.238281 106.132812 169.320312 105.902344 169.320312 C 105.859375 169.277344 105.839844 169.277344 105.820312 169.277344 Z M 106.488281 165.773438 Z M 106.488281 165.773438 Z M 106.488281 165.773438 " fill-opacity="1" fill-rule="nonzero"/><path fill="#000000" d="M 105.378906 171.40625 C 104.753906 171.386719 103.898438 171.117188 103.398438 169.863281 C 103.335938 169.71875 103.417969 169.550781 103.566406 169.488281 C 103.710938 169.425781 103.878906 169.507812 103.941406 169.65625 C 104.191406 170.28125 104.546875 170.65625 105.027344 170.804688 C 105.714844 170.992188 106.402344 170.636719 106.527344 170.550781 C 106.613281 170.46875 106.738281 170.449219 106.84375 170.488281 C 106.988281 170.550781 107.050781 170.71875 106.988281 170.867188 C 106.882812 171.074219 106.132812 171.429688 105.421875 171.429688 C 105.421875 171.40625 105.402344 171.40625 105.378906 171.40625 Z M 106.464844 170.613281 Z M 106.464844 170.613281 Z M 106.464844 170.613281 " fill-opacity="1" fill-rule="nonzero"/><path fill="#000000" d="M 101.960938 163.199219 C 102.097656 163.210938 102.222656 163.253906 102.34375 163.328125 C 102.460938 163.402344 102.5625 163.496094 102.644531 163.617188 C 102.730469 163.738281 102.789062 163.875 102.828125 164.023438 C 102.863281 164.175781 102.875 164.328125 102.855469 164.484375 C 102.839844 164.644531 102.800781 164.792969 102.734375 164.929688 C 102.667969 165.070312 102.578125 165.191406 102.472656 165.292969 C 102.367188 165.394531 102.246094 165.46875 102.117188 165.515625 C 101.984375 165.5625 101.851562 165.578125 101.71875 165.5625 C 101.582031 165.550781 101.457031 165.507812 101.335938 165.433594 C 101.21875 165.359375 101.117188 165.265625 101.035156 165.144531 C 100.949219 165.023438 100.890625 164.886719 100.851562 164.738281 C 100.816406 164.585938 100.804688 164.433594 100.824219 164.277344 C 100.839844 164.117188 100.878906 163.96875 100.945312 163.832031 C 101.015625 163.691406 101.101562 163.570312 101.207031 163.46875 C 101.3125 163.367188 101.433594 163.292969 101.5625 163.246094 C 101.695312 163.199219 101.828125 163.183594 101.960938 163.199219 Z M 101.960938 163.199219 " fill-opacity="1" fill-rule="nonzero"/><path fill="#efe5dc" d="M 102.0625 164.0625 C 102.0625 164.195312 102.015625 164.308594 101.921875 164.402344 C 101.828125 164.496094 101.714844 164.542969 101.582031 164.542969 C 101.449219 164.542969 101.335938 164.496094 101.242188 164.402344 C 101.148438 164.308594 101.101562 164.195312 101.101562 164.0625 C 101.101562 163.929688 101.148438 163.816406 101.242188 163.722656 C 101.335938 163.628906 101.449219 163.582031 101.582031 163.582031 C 101.714844 163.582031 101.828125 163.628906 101.921875 163.722656 C 102.015625 163.816406 102.0625 163.929688 102.0625 164.0625 Z M 102.0625 164.0625 " fill-opacity="1" fill-rule="nonzero"/><path fill="#000000" d="M 110.410156 164.085938 C 110.542969 164.101562 110.671875 164.144531 110.789062 164.21875 C 110.90625 164.289062 111.007812 164.386719 111.09375 164.507812 C 111.175781 164.628906 111.238281 164.765625 111.273438 164.914062 C 111.308594 165.066406 111.320312 165.21875 111.304688 165.375 C 111.289062 165.53125 111.246094 165.679688 111.179688 165.820312 C 111.113281 165.960938 111.027344 166.082031 110.917969 166.183594 C 110.8125 166.28125 110.695312 166.355469 110.5625 166.402344 C 110.433594 166.453125 110.300781 166.46875 110.164062 166.453125 C 110.027344 166.441406 109.902344 166.394531 109.785156 166.324219 C 109.664062 166.25 109.566406 166.152344 109.480469 166.03125 C 109.398438 165.910156 109.335938 165.777344 109.300781 165.625 C 109.261719 165.476562 109.253906 165.320312 109.269531 165.164062 C 109.285156 165.007812 109.328125 164.859375 109.394531 164.71875 C 109.460938 164.582031 109.546875 164.460938 109.652344 164.359375 C 109.761719 164.257812 109.878906 164.183594 110.011719 164.136719 C 110.140625 164.089844 110.273438 164.074219 110.410156 164.085938 Z M 110.410156 164.085938 " fill-opacity="1" fill-rule="nonzero"/><path fill="#efe5dc" d="M 110.515625 164.9375 C 110.515625 165.070312 110.46875 165.183594 110.375 165.277344 C 110.28125 165.371094 110.167969 165.417969 110.035156 165.417969 C 109.902344 165.417969 109.789062 165.371094 109.695312 165.277344 C 109.601562 165.183594 109.554688 165.070312 109.554688 164.9375 C 109.554688 164.804688 109.601562 164.691406 109.695312 164.597656 C 109.789062 164.503906 109.902344 164.457031 110.035156 164.457031 C 110.167969 164.457031 110.28125 164.503906 110.375 164.597656 C 110.46875 164.691406 110.515625 164.804688 110.515625 164.9375 Z M 110.515625 164.9375 " fill-opacity="1" fill-rule="nonzero"/><path fill="#000000" d="M 96.824219 162.183594 L 96.824219 164.9375 C 96.824219 164.9375 98.679688 161.535156 98.742188 160.160156 L 103.25 160.160156 L 104.753906 158.425781 L 105.191406 160.160156 L 107.65625 160.511719 L 108.429688 157.070312 L 109.535156 160.574219 L 113.582031 161.515625 C 113.582031 161.515625 115.066406 161.453125 113.582031 157.527344 C 112.101562 153.605469 107.613281 152.289062 103.753906 152.832031 C 99.890625 153.375 96.761719 157.382812 96.78125 158.824219 C 96.84375 160.261719 96.824219 162.183594 96.824219 162.183594 Z M 96.824219 162.183594 " fill-opacity="1" fill-rule="nonzero"/><path fill="#efe5dc" d="M 117.714844 197.746094 C 117.695312 198.226562 117.695312 198.730469 117.675781 199.207031 C 117.484375 205.886719 118.382812 215.71875 118.382812 215.71875 L 93.589844 216.199219 C 93.589844 216.199219 93.339844 205.574219 92.648438 199.335938 L 92.648438 199.3125 C 91.792969 191.359375 91.082031 181.988281 92.355469 180.527344 C 94.359375 178.210938 96.46875 178.839844 98.035156 177.835938 C 98.242188 177.710938 98.429688 177.542969 98.597656 177.355469 C 100.183594 175.644531 100.683594 174.058594 100.683594 174.058594 C 100.871094 174.164062 104.503906 176.667969 107.34375 175.414062 C 107.34375 175.414062 106.550781 178.023438 109.054688 178.253906 C 109.804688 178.316406 110.765625 178.335938 111.789062 178.421875 C 113.75 178.585938 115.859375 179.027344 116.945312 180.632812 C 116.945312 180.652344 116.964844 180.652344 116.964844 180.652344 C 117.171875 180.96875 117.339844 181.34375 117.464844 181.761719 C 117.945312 183.535156 117.902344 190.796875 117.714844 197.746094 Z M 117.714844 197.746094 " fill-opacity="1" fill-rule="nonzero"/><path fill="#517b45" d="M 103.042969 194.886719 C 102.585938 186.246094 98.160156 178.046875 98.054688 177.816406 C 96.488281 178.839844 94.402344 178.191406 92.378906 180.507812 L 92.671875 199.3125 L 90.667969 218.367188 L 101.6875 217.222656 C 101.6875 217.222656 101.8125 216.386719 101.957031 214.96875 C 102.4375 210.75 103.398438 201.464844 103.042969 194.886719 Z M 103.042969 194.886719 " fill-opacity="1" fill-rule="nonzero"/><path fill="#517b45" d="M 124.894531 194.074219 L 116.945312 180.570312 C 116.945312 180.570312 116.945312 180.589844 116.921875 180.613281 C 115.859375 179.027344 113.730469 178.566406 111.765625 178.398438 C 111.765625 178.398438 110.765625 184.433594 110.765625 192.613281 C 110.765625 198.375 111.351562 208.121094 111.765625 213.359375 C 111.957031 215.550781 112.101562 216.96875 112.183594 216.96875 C 112.433594 216.96875 120.199219 216.96875 120.199219 216.96875 L 117.800781 199.335938 C 122.160156 200.335938 124.894531 194.074219 124.894531 194.074219 Z M 124.894531 194.074219 " fill-opacity="1" fill-rule="nonzero"/><path fill="#000000" d="M 104.066406 180.175781 C 103.085938 180.175781 102.207031 179.945312 101.519531 179.609375 C 100.976562 179.359375 100.371094 178.941406 100.328125 178.523438 C 100.308594 178.421875 100.390625 178.335938 100.496094 178.316406 C 100.601562 178.296875 100.683594 178.378906 100.707031 178.484375 C 100.726562 178.609375 100.996094 178.941406 101.6875 179.277344 C 103.042969 179.921875 105.234375 180.152344 107.238281 178.859375 C 107.320312 178.796875 107.445312 178.839844 107.488281 178.921875 C 107.550781 179.003906 107.507812 179.128906 107.425781 179.171875 C 106.300781 179.902344 105.128906 180.175781 104.066406 180.175781 Z M 104.066406 180.175781 " fill-opacity="1" fill-rule="nonzero"/><path fill="#e6d06a" d="M 112.371094 211.167969 C 112.371094 211.167969 113.292969 211.835938 112.664062 212.628906 C 112.039062 213.421875 111.664062 212.984375 111.664062 212.984375 C 111.664062 212.984375 111.957031 214.777344 110.035156 214.238281 C 110.035156 214.238281 110.328125 215.425781 108.449219 215.007812 C 106.570312 214.589844 104.273438 213.839844 104.273438 213.839844 C 104.273438 213.839844 102.019531 215.320312 100.808594 214.839844 C 99.597656 214.363281 99.035156 213.859375 98.890625 213.921875 C 98.742188 213.984375 87.429688 214.613281 85.074219 210.332031 C 82.714844 206.054688 85.511719 193.949219 85.511719 193.949219 L 93.003906 196.183594 C 93.003906 196.183594 91.523438 204.09375 90.730469 206.785156 L 101.332031 209.375 C 101.332031 209.375 105.964844 206.703125 107.53125 207.203125 C 108.429688 207.496094 110.140625 208.351562 111.433594 209.019531 C 112.371094 209.519531 113.101562 209.917969 113.101562 209.917969 C 113.101562 209.917969 113.125 209.957031 113.144531 210.042969 C 113.25 210.355469 113.355469 211.105469 112.371094 211.167969 Z M 112.371094 211.167969 " fill-opacity="1" fill-rule="nonzero"/><path fill="#000000" d="M 107.320312 209.207031 C 107.34375 209.269531 107.382812 209.3125 107.445312 209.332031 C 109.179688 210.1875 111.808594 211.480469 111.976562 211.585938 C 112.082031 211.648438 112.226562 211.628906 112.289062 211.523438 C 112.371094 211.417969 112.351562 211.273438 112.246094 211.1875 C 112.226562 211.167969 112.164062 211.125 107.675781 208.894531 C 107.550781 208.832031 107.425781 208.894531 107.363281 208.996094 C 107.300781 209.082031 107.300781 209.164062 107.320312 209.207031 Z M 107.320312 209.207031 " fill-opacity="1" fill-rule="nonzero"/><path fill="#000000" d="M 107.050781 210.8125 C 107.070312 210.855469 107.113281 210.917969 107.15625 210.9375 C 108.761719 211.835938 111.203125 213.214844 111.351562 213.296875 C 111.453125 213.359375 111.578125 213.339844 111.664062 213.234375 C 111.746094 213.128906 111.726562 212.984375 111.621094 212.921875 C 111.601562 212.902344 111.558594 212.878906 107.40625 210.542969 C 107.300781 210.480469 107.15625 210.519531 107.09375 210.625 C 107.050781 210.6875 107.03125 210.75 107.050781 210.8125 Z M 107.050781 210.8125 " fill-opacity="1" fill-rule="nonzero"/><path fill="#000000" d="M 106.738281 212.671875 C 106.757812 212.710938 106.777344 212.753906 106.820312 212.796875 C 107.863281 213.441406 109.429688 214.445312 109.511719 214.488281 C 109.617188 214.550781 109.765625 214.527344 109.828125 214.425781 C 109.890625 214.320312 109.867188 214.195312 109.785156 214.109375 C 109.742188 214.070312 108.074219 213.027344 107.070312 212.398438 C 106.96875 212.335938 106.820312 212.359375 106.757812 212.460938 C 106.714844 212.523438 106.695312 212.609375 106.738281 212.671875 Z M 106.738281 212.671875 " fill-opacity="1" fill-rule="nonzero"/><path fill="#517b45" d="M 99.222656 190.691406 C 99.097656 191.820312 98.867188 193.09375 98.554688 194.347656 C 98.429688 194.847656 98.304688 195.328125 98.179688 195.808594 C 97.867188 196.953125 97.53125 198.039062 97.242188 198.894531 C 97.03125 199.5 96.863281 199.980469 96.738281 200.335938 C 96.613281 200.648438 96.53125 200.835938 96.511719 200.859375 C 96.425781 200.921875 94.234375 200.734375 91.648438 200.480469 C 89.414062 200.253906 86.886719 199.980469 85.15625 199.75 C 83.945312 199.605469 83.109375 199.480469 83.070312 199.417969 C 83.007812 199.355469 82.984375 199.042969 83.007812 198.476562 C 83.027344 197.746094 83.132812 196.640625 83.339844 195.222656 C 83.402344 194.722656 83.488281 194.199219 83.589844 193.617188 C 83.738281 192.71875 83.925781 191.738281 84.15625 190.695312 C 84.257812 190.191406 84.382812 189.691406 84.507812 189.167969 C 84.613281 188.691406 84.738281 188.1875 84.863281 187.6875 C 85.050781 186.957031 85.300781 186.289062 85.617188 185.664062 C 85.84375 185.203125 86.09375 184.765625 86.367188 184.371094 C 86.910156 183.554688 87.515625 182.84375 88.160156 182.21875 C 88.558594 181.824219 88.976562 181.488281 89.394531 181.175781 C 91.730469 179.382812 94.046875 178.671875 94.046875 178.671875 L 94.070312 178.671875 C 95.882812 178.671875 97.386719 181.449219 98.328125 184.265625 C 98.492188 184.808594 98.660156 185.351562 98.785156 185.871094 C 99.078125 187.019531 99.265625 188.085938 99.328125 188.878906 C 99.328125 188.960938 99.347656 189.066406 99.347656 189.167969 C 99.308594 189.648438 99.285156 190.152344 99.222656 190.691406 Z M 99.222656 190.691406 " fill-opacity="1" fill-rule="nonzero"/><path fill="#7d9e37" d="M 115.921875 62.144531 C 117.109375 62.144531 118.152344 62.082031 119.011719 62.039062 C 118.089844 61.101562 117.214844 60.183594 116.402344 59.308594 C 114.480469 57.199219 112.707031 55.132812 111.140625 53.148438 C 109.222656 53.148438 102.773438 52.542969 96.449219 45.15625 C 88.890625 36.367188 94.589844 19.003906 94.589844 19.003906 C 114.605469 33.800781 113.769531 46.949219 112.476562 51.480469 C 114.148438 53.589844 116.066406 55.84375 118.195312 58.160156 C 118.988281 59.015625 119.824219 59.910156 120.722656 60.808594 C 120.824219 60.164062 120.867188 59.410156 120.886719 58.535156 C 116.945312 55.027344 109.828125 44.738281 116.820312 22.34375 C 116.820312 22.34375 131.65625 32.988281 130.761719 44.550781 C 129.863281 56.113281 123.140625 59.996094 123.140625 59.996094 C 123.140625 60.039062 123.058594 60.015625 122.890625 59.953125 C 122.808594 60.894531 122.683594 61.769531 122.472656 62.5625 C 127.378906 67.300781 133.515625 72.332031 140.652344 76.296875 C 140.945312 75.585938 141.175781 74.8125 141.320312 74 C 137.667969 71.683594 127.902344 62.25 134.058594 37.371094 C 134.058594 37.371094 149.503906 47.097656 149.316406 58.703125 C 149.148438 67.71875 145.203125 72.332031 143.449219 73.917969 C 143.285156 75.148438 142.96875 76.253906 142.511719 77.277344 C 146.164062 79.15625 150.046875 80.761719 154.136719 81.890625 C 154.679688 82.035156 155.011719 82.621094 154.867188 83.164062 C 154.804688 83.394531 154.679688 83.582031 154.511719 83.707031 C 154.261719 83.894531 153.929688 83.976562 153.59375 83.894531 C 149.230469 82.683594 145.121094 80.972656 141.257812 78.945312 C 140.800781 79.28125 140.046875 79.800781 139.066406 80.367188 C 139.128906 80.492188 139.152344 80.574219 139.128906 80.597656 C 139.128906 80.597656 135.832031 87.628906 124.394531 89.507812 C 112.957031 91.386719 101.082031 77.507812 101.082031 77.507812 C 123.332031 68.425781 134.183594 75.148438 137.753906 78.738281 C 138.316406 78.402344 138.816406 78.113281 139.234375 77.839844 C 132.097656 73.792969 125.9375 68.761719 121.011719 63.960938 C 120.15625 64.066406 118.28125 64.234375 115.921875 64.234375 C 114.335938 65.945312 109.679688 69.890625 100.601562 69.953125 C 88.996094 70.015625 79.480469 54.421875 79.480469 54.421875 C 104.316406 48.601562 113.644531 58.449219 115.921875 62.144531 Z M 115.921875 62.144531 " fill-opacity="1" fill-rule="nonzero"/><g clip-path="url(#4c0698d0a1)"><path fill="#7d9e37" d="M 313.511719 120.460938 C 311.90625 120.398438 310.464844 120.273438 309.296875 120.167969 C 310.589844 118.9375 311.820312 117.726562 312.96875 116.558594 C 315.703125 113.78125 318.207031 111.027344 320.441406 108.417969 C 323.070312 108.5 331.898438 107.980469 340.894531 98.210938 C 351.625 86.566406 344.671875 62.582031 344.671875 62.582031 C 316.664062 81.828125 317.183594 99.839844 318.730469 106.058594 C 316.351562 108.855469 313.636719 111.863281 310.609375 114.910156 C 309.484375 116.035156 308.292969 117.203125 307.042969 118.414062 C 306.9375 117.519531 306.894531 116.496094 306.917969 115.304688 C 312.46875 110.691406 322.675781 97 314.179688 66.070312 C 314.179688 66.070312 293.414062 79.90625 294.082031 95.726562 C 294.769531 111.546875 303.765625 117.183594 303.765625 117.183594 C 303.765625 117.226562 303.890625 117.203125 304.097656 117.121094 C 304.160156 118.414062 304.308594 119.605469 304.539062 120.691406 C 297.609375 126.953125 288.988281 133.503906 279.054688 138.597656 C 278.675781 137.617188 278.425781 136.550781 278.261719 135.425781 C 283.375 132.441406 297.128906 120.023438 289.925781 85.75 C 289.925781 85.75 268.367188 98.316406 268.09375 114.15625 C 267.886719 126.492188 273.082031 132.960938 275.402344 135.214844 C 275.589844 136.886719 275.964844 138.453125 276.527344 139.851562 C 271.457031 142.25 266.09375 144.253906 260.4375 145.609375 C 259.683594 145.796875 259.203125 146.550781 259.390625 147.320312 C 259.476562 147.636719 259.644531 147.886719 259.871094 148.074219 C 260.207031 148.34375 260.664062 148.46875 261.105469 148.367188 C 267.113281 146.925781 272.832031 144.777344 278.175781 142.207031 C 278.804688 142.6875 279.785156 143.441406 281.097656 144.273438 C 280.996094 144.460938 280.972656 144.566406 281.015625 144.566406 C 281.015625 144.566406 285.1875 154.335938 300.738281 157.445312 C 316.265625 160.554688 333.132812 142.167969 333.132812 142.167969 C 303.179688 128.703125 288.050781 137.386719 282.996094 142.105469 C 282.226562 141.625 281.558594 141.1875 281.015625 140.808594 C 290.949219 135.632812 299.589844 129.039062 306.5625 122.734375 C 307.730469 122.902344 310.277344 123.238281 313.492188 123.363281 C 315.578125 125.761719 321.734375 131.398438 334.152344 131.878906 C 349.996094 132.503906 363.75 111.695312 363.75 111.695312 C 330 102.511719 316.789062 115.515625 313.511719 120.460938 Z M 313.511719 120.460938 " fill-opacity="1" fill-rule="nonzero"/></g><path fill="#7d9e37" d="M 301.03125 177 C 300.257812 177.460938 299.589844 177.898438 299.070312 178.273438 C 300.027344 178.523438 300.949219 178.796875 301.824219 179.046875 C 303.890625 179.671875 305.851562 180.339844 307.625 181.007812 C 308.878906 180.257812 313.304688 178.171875 320.296875 180.507812 C 328.625 183.304688 331.648438 196.808594 331.648438 196.808594 C 312.886719 194.949219 308.316406 186.058594 307.417969 182.636719 C 305.519531 181.90625 303.390625 181.175781 301.113281 180.507812 C 300.257812 180.257812 299.382812 180.007812 298.441406 179.757812 C 298.628906 180.214844 298.882812 180.738281 299.214844 181.300781 C 303.140625 182.050781 311.757812 185.976562 315.914062 203.277344 C 315.914062 203.277344 302.117188 202.109375 298.234375 194.242188 C 294.332031 186.371094 297.191406 181.238281 297.191406 181.238281 C 297.167969 181.21875 297.253906 181.195312 297.378906 181.175781 C 297.066406 180.527344 296.816406 179.921875 296.648438 179.316406 C 291.617188 178.128906 285.667969 177.253906 279.492188 177.441406 C 279.574219 178.023438 279.722656 178.609375 279.949219 179.191406 C 283.226562 179.277344 293.246094 181.636719 298.902344 200.191406 C 298.902344 200.191406 285.0625 199.855469 280.703125 192.238281 C 277.300781 186.308594 278.09375 181.78125 278.613281 180.070312 C 278.261719 179.214844 278.03125 178.359375 277.925781 177.523438 C 274.816406 177.710938 271.683594 178.171875 268.574219 179.027344 C 268.15625 179.128906 267.71875 178.902344 267.617188 178.484375 C 267.574219 178.316406 267.574219 178.148438 267.636719 177.984375 C 267.71875 177.753906 267.90625 177.585938 268.15625 177.503906 C 271.457031 176.605469 274.816406 176.105469 278.09375 175.9375 C 278.261719 175.539062 278.550781 174.914062 278.96875 174.164062 C 278.867188 174.101562 278.824219 174.058594 278.84375 174.039062 C 278.84375 174.039062 278.261719 168.171875 284.980469 162.515625 C 291.703125 156.839844 304.808594 161.285156 304.808594 161.285156 C 293.851562 175.832031 284.1875 175.664062 280.472656 174.726562 C 280.222656 175.164062 280.011719 175.5625 279.867188 175.894531 C 286.085938 175.75 292.035156 176.648438 297.105469 177.855469 C 297.628906 177.460938 298.777344 176.625 300.300781 175.707031 C 300.675781 173.976562 302.15625 169.613281 308.042969 166.042969 C 315.558594 161.492188 327.808594 167.941406 327.808594 167.941406 C 313.824219 181.320312 303.953125 178.523438 301.03125 177 Z M 301.03125 177 " fill-opacity="1" fill-rule="nonzero"/><path fill="#e6d06a" d="M 254.535156 70.3125 L 260.355469 70.515625 L 259.972656 81.550781 L 254.152344 81.347656 Z M 254.535156 70.3125 " fill-opacity="1" fill-rule="nonzero"/><path fill="#efe5dc" d="M 242.527344 93.847656 C 242.632812 103.242188 243.195312 115.222656 243.195312 115.222656 L 248.101562 116.578125 L 257.578125 119.207031 L 257.890625 119.292969 L 266.238281 114.992188 L 267.71875 114.21875 C 267.71875 114.21875 268.242188 110.566406 268.824219 105.683594 C 269.203125 102.488281 269.597656 98.796875 269.890625 95.269531 C 270.414062 88.882812 270.578125 83.058594 269.554688 81.890625 C 269.328125 81.640625 269.117188 81.410156 268.890625 81.222656 C 266.71875 79.34375 264.503906 80.136719 262.960938 78.570312 C 262.941406 78.550781 262.917969 78.53125 262.917969 78.53125 C 261.230469 76.714844 260.707031 75.023438 260.707031 75.023438 C 260.664062 75.042969 260.539062 75.128906 260.332031 75.253906 C 259.371094 75.835938 256.742188 77.257812 254.382812 76.714844 C 254.132812 76.652344 253.882812 76.566406 253.632812 76.464844 C 253.632812 76.464844 254.339844 78.800781 252.398438 79.363281 C 252.234375 79.425781 252.023438 79.449219 251.816406 79.46875 C 249.894531 79.636719 246.660156 79.511719 244.59375 80.867188 C 244.550781 80.886719 244.53125 80.910156 244.488281 80.929688 C 243.757812 81.453125 243.175781 82.183594 242.882812 83.203125 C 242.839844 83.371094 242.800781 83.582031 242.757812 83.832031 C 242.675781 84.3125 242.632812 84.957031 242.589844 85.730469 L 242.589844 85.792969 C 242.527344 87.859375 242.507812 90.71875 242.527344 93.847656 Z M 242.527344 93.847656 " fill-opacity="1" fill-rule="nonzero"/><path fill="#000000" d="M 267.742188 114.242188 C 267.742188 114.242188 281.578125 214.570312 280.972656 214.777344 C 280.367188 214.988281 279.597656 219.914062 269.746094 215.574219 C 269.746094 215.574219 257.679688 147.386719 256.492188 148.179688 C 255.300781 148.972656 252.859375 216.011719 252.859375 216.011719 C 252.859375 216.011719 249.476562 220.269531 240.984375 215.925781 C 240.984375 215.925781 239.753906 121.335938 243.175781 115.222656 Z M 267.742188 114.242188 " fill-opacity="1" fill-rule="nonzero"/><path fill="#000000" d="M 266.90625 63.542969 C 266.90625 63.542969 269.097656 57.929688 266.863281 53.902344 C 264.632812 49.871094 261.457031 52.253906 261.457031 52.253906 C 261.457031 52.253906 253.464844 49.933594 249.875 51.4375 C 246.285156 52.941406 247.828125 56.550781 247.828125 56.550781 L 265.882812 64.941406 Z M 266.90625 63.542969 " fill-opacity="1" fill-rule="nonzero"/><path fill="#e6d06a" d="M 247.789062 61.476562 C 247.914062 61.832031 246.304688 75.503906 255.511719 74.835938 C 255.511719 74.835938 261.730469 75.753906 264.546875 68.636719 C 264.546875 68.636719 267.175781 68.78125 267.90625 66.027344 C 268.636719 63.273438 266.695312 62.082031 265.152344 63.4375 C 265.152344 63.4375 264.484375 54.945312 256.910156 54.839844 C 249.289062 54.714844 247.789062 61.476562 247.789062 61.476562 Z M 247.789062 61.476562 " fill-opacity="1" fill-rule="nonzero"/><path fill="#000000" d="M 265.132812 63.4375 L 264.566406 66.277344 C 264.566406 66.277344 262.3125 60.808594 262.085938 58.285156 C 262.085938 58.285156 252.589844 63.042969 252.066406 59.097656 C 252.066406 59.097656 249.644531 63.753906 247.058594 63.3125 C 244.449219 62.875 245.847656 55.800781 252.066406 53.777344 C 258.265625 51.75 263.523438 53.273438 265.382812 56.363281 C 267.261719 59.433594 264.839844 63.667969 265.132812 63.4375 Z M 265.132812 63.4375 " fill-opacity="1" fill-rule="nonzero"/><path fill="#000000" d="M 261.480469 63.941406 C 261.4375 63.941406 261.394531 63.917969 261.355469 63.898438 C 260.394531 63.023438 259.496094 63.398438 259.121094 63.566406 C 258.976562 63.628906 258.847656 63.667969 258.746094 63.585938 C 258.660156 63.523438 258.660156 63.398438 258.722656 63.3125 C 258.765625 63.273438 258.808594 63.25 258.871094 63.25 C 258.890625 63.25 258.933594 63.230469 258.953125 63.210938 C 259.371094 63.042969 260.457031 62.5625 261.605469 63.605469 C 261.6875 63.667969 261.6875 63.792969 261.625 63.878906 C 261.582031 63.917969 261.519531 63.941406 261.480469 63.941406 Z M 261.480469 63.941406 " fill-opacity="1" fill-rule="nonzero"/><path fill="#000000" d="M 249.601562 64.546875 C 249.5625 64.546875 249.519531 64.523438 249.5 64.503906 C 249.414062 64.441406 249.394531 64.316406 249.457031 64.234375 C 249.476562 64.210938 250.542969 62.875 252.316406 63.4375 C 252.421875 63.460938 252.460938 63.585938 252.441406 63.667969 C 252.421875 63.773438 252.296875 63.816406 252.210938 63.792969 C 250.6875 63.3125 249.769531 64.460938 249.769531 64.460938 C 249.730469 64.523438 249.664062 64.566406 249.601562 64.546875 Z M 249.601562 64.546875 " fill-opacity="1" fill-rule="nonzero"/><path fill="#000000" d="M 255.65625 70.492188 C 255.636719 70.492188 255.132812 70.535156 254.78125 69.761719 C 254.488281 69.136719 255.195312 68.09375 255.46875 67.695312 C 255.59375 67.507812 255.636719 67.46875 255.636719 67.382812 C 255.636719 67.28125 255.53125 67.195312 255.425781 67.21875 C 255.34375 67.21875 255.28125 67.28125 255.257812 67.34375 C 255.238281 67.363281 255.195312 67.425781 255.15625 67.488281 C 254.820312 67.96875 254.070312 69.117188 254.445312 69.929688 C 254.820312 70.765625 255.40625 70.871094 255.613281 70.871094 C 255.65625 70.871094 255.699219 70.871094 255.699219 70.871094 C 255.800781 70.871094 255.863281 70.765625 255.863281 70.660156 C 255.84375 70.554688 255.738281 70.492188 255.65625 70.492188 Z M 255.65625 70.492188 " fill-opacity="1" fill-rule="nonzero"/><path fill="#000000" d="M 256.03125 73.039062 C 255.320312 73.019531 254.632812 72.644531 254.570312 72.476562 C 254.527344 72.371094 254.570312 72.269531 254.675781 72.226562 C 254.757812 72.183594 254.84375 72.226562 254.882812 72.289062 C 254.988281 72.371094 255.71875 72.789062 256.449219 72.621094 C 256.992188 72.496094 257.410156 72.101562 257.703125 71.433594 C 257.742188 71.328125 257.847656 71.285156 257.953125 71.328125 C 258.054688 71.371094 258.097656 71.476562 258.054688 71.578125 C 257.535156 72.789062 256.699219 73.039062 256.09375 73.019531 C 256.050781 73.0625 256.03125 73.0625 256.03125 73.039062 Z M 256.03125 73.039062 " fill-opacity="1" fill-rule="nonzero"/><path fill="#000000" d="M 260.96875 66.105469 C 260.976562 66.265625 260.960938 66.421875 260.917969 66.574219 C 260.875 66.726562 260.808594 66.863281 260.71875 66.980469 C 260.628906 67.101562 260.523438 67.195312 260.402344 67.265625 C 260.277344 67.335938 260.148438 67.375 260.007812 67.386719 C 259.871094 67.394531 259.734375 67.375 259.605469 67.320312 C 259.472656 67.269531 259.351562 67.1875 259.25 67.082031 C 259.144531 66.976562 259.058594 66.851562 258.996094 66.707031 C 258.933594 66.5625 258.894531 66.410156 258.882812 66.25 C 258.875 66.089844 258.890625 65.933594 258.933594 65.78125 C 258.976562 65.628906 259.042969 65.496094 259.132812 65.375 C 259.222656 65.253906 259.328125 65.160156 259.449219 65.089844 C 259.574219 65.019531 259.703125 64.980469 259.84375 64.96875 C 259.980469 64.960938 260.117188 64.984375 260.246094 65.035156 C 260.378906 65.085938 260.496094 65.167969 260.601562 65.273438 C 260.707031 65.378906 260.792969 65.503906 260.855469 65.648438 C 260.917969 65.792969 260.957031 65.945312 260.96875 66.105469 Z M 260.96875 66.105469 " fill-opacity="1" fill-rule="nonzero"/><path fill="#efe5dc" d="M 260.664062 65.839844 C 260.664062 65.972656 260.617188 66.085938 260.523438 66.179688 C 260.429688 66.273438 260.316406 66.320312 260.183594 66.320312 C 260.050781 66.320312 259.941406 66.273438 259.847656 66.179688 C 259.753906 66.085938 259.707031 65.972656 259.707031 65.839844 C 259.707031 65.707031 259.753906 65.59375 259.847656 65.5 C 259.941406 65.40625 260.050781 65.359375 260.183594 65.359375 C 260.316406 65.359375 260.429688 65.40625 260.523438 65.5 C 260.617188 65.59375 260.664062 65.707031 260.664062 65.839844 Z M 260.664062 65.839844 " fill-opacity="1" fill-rule="nonzero"/><path fill="#000000" d="M 252.367188 66.691406 C 252.378906 66.851562 252.363281 67.007812 252.320312 67.160156 C 252.277344 67.308594 252.210938 67.445312 252.121094 67.566406 C 252.03125 67.6875 251.925781 67.78125 251.800781 67.851562 C 251.675781 67.921875 251.546875 67.960938 251.410156 67.96875 C 251.269531 67.980469 251.136719 67.957031 251.003906 67.90625 C 250.871094 67.851562 250.753906 67.773438 250.648438 67.667969 C 250.542969 67.558594 250.457031 67.433594 250.394531 67.289062 C 250.332031 67.144531 250.296875 66.992188 250.285156 66.832031 C 250.273438 66.671875 250.289062 66.519531 250.332031 66.367188 C 250.375 66.214844 250.441406 66.078125 250.53125 65.960938 C 250.621094 65.839844 250.726562 65.742188 250.851562 65.675781 C 250.972656 65.605469 251.105469 65.5625 251.242188 65.554688 C 251.382812 65.546875 251.515625 65.566406 251.648438 65.621094 C 251.78125 65.671875 251.898438 65.75 252.003906 65.859375 C 252.109375 65.964844 252.191406 66.089844 252.257812 66.234375 C 252.320312 66.378906 252.355469 66.53125 252.367188 66.691406 Z M 252.367188 66.691406 " fill-opacity="1" fill-rule="nonzero"/><path fill="#efe5dc" d="M 252.066406 66.425781 C 252.066406 66.554688 252.019531 66.667969 251.925781 66.761719 C 251.832031 66.855469 251.71875 66.902344 251.585938 66.902344 C 251.453125 66.902344 251.339844 66.855469 251.246094 66.761719 C 251.152344 66.667969 251.105469 66.554688 251.105469 66.425781 C 251.105469 66.292969 251.152344 66.179688 251.246094 66.085938 C 251.339844 65.992188 251.453125 65.945312 251.585938 65.945312 C 251.71875 65.945312 251.832031 65.992188 251.925781 66.085938 C 252.019531 66.179688 252.066406 66.292969 252.066406 66.425781 Z M 252.066406 66.425781 " fill-opacity="1" fill-rule="nonzero"/><path fill="#517b45" d="M 242.402344 108.082031 L 242.464844 110.109375 C 242.464844 110.109375 238.730469 133.378906 238.605469 133.921875 C 238.480469 134.445312 246.953125 134.714844 246.953125 134.714844 C 246.953125 134.714844 246.953125 134.632812 246.972656 134.484375 C 246.996094 134.675781 247.015625 134.777344 247.015625 134.777344 L 252.671875 117.871094 L 257.828125 134.570312 C 257.828125 134.652344 257.828125 134.714844 257.828125 134.714844 L 257.867188 134.714844 L 257.890625 134.777344 C 257.890625 134.777344 257.953125 134.757812 258.035156 134.714844 L 273.5625 134.714844 L 269.871094 114.804688 L 268.992188 110.128906 L 269.160156 107.707031 C 271.289062 105.664062 272.4375 96.355469 272.917969 92.410156 C 273.167969 90.300781 273.417969 87.441406 273 85.1875 C 272.832031 84.332031 272.582031 83.582031 272.207031 82.953125 C 271.644531 82.058594 270.808594 81.492188 269.578125 81.472656 C 269.347656 81.367188 269.117188 81.265625 268.910156 81.199219 C 266.738281 79.324219 264.527344 80.117188 262.980469 78.550781 C 262.25 79.34375 261.25 80.597656 260.351562 82.496094 C 260.308594 82.597656 260.246094 82.703125 260.207031 82.828125 C 259.601562 84.125 259.058594 85.710938 258.621094 87.628906 C 257.910156 88.921875 257.054688 90.53125 256.199219 92.136719 C 254.363281 95.582031 252.628906 98.941406 252.628906 98.941406 C 252.628906 98.941406 251.355469 90.15625 250.898438 86.417969 C 250.773438 85.480469 250.710938 84.875 250.730469 84.789062 C 251.585938 81.410156 252.441406 79.34375 252.441406 79.34375 C 252.273438 79.40625 252.066406 79.425781 251.859375 79.449219 C 249.9375 79.613281 246.703125 79.488281 244.65625 80.847656 C 244.613281 80.867188 244.59375 80.886719 244.550781 80.910156 C 244.34375 81.054688 242.570312 82.328125 242.570312 82.328125 C 242.445312 82.328125 241.359375 82.515625 236.957031 93.703125 C 232.46875 104.910156 240.671875 110.652344 242.402344 108.082031 Z M 242.402344 108.082031 " fill-opacity="1" fill-rule="nonzero"/><path fill="#000000" d="M 259.832031 228.03125 C 260.476562 229.890625 280.117188 227.46875 281.140625 225.070312 C 281.683594 223.796875 281.203125 221.5 280.597656 219.453125 C 280.054688 217.617188 279.40625 215.96875 279.28125 215.425781 L 271.683594 214.777344 L 271.601562 218.390625 C 271.601562 218.390625 268.785156 220.164062 265.902344 222.210938 C 262.730469 224.464844 259.496094 227.050781 259.832031 228.03125 Z M 259.832031 228.03125 " fill-opacity="1" fill-rule="nonzero"/><path fill="#000000" d="M 252.691406 226.089844 C 252.984375 225.171875 252.859375 223.292969 252.628906 221.355469 C 252.253906 218.410156 251.585938 215.34375 251.585938 215.34375 C 251.585938 215.34375 243.71875 214.777344 243.195312 214.425781 C 242.695312 214.046875 243.238281 218.597656 243.195312 218.871094 C 243.175781 218.996094 240.859375 219.996094 238.207031 221.3125 C 234.847656 223.003906 230.945312 225.214844 230.632812 226.820312 C 230.089844 229.703125 251.960938 228.410156 252.691406 226.089844 Z M 252.691406 226.089844 " fill-opacity="1" fill-rule="nonzero"/><path fill="#000000" d="M 265.777344 218.746094 C 265.777344 218.703125 265.777344 218.683594 265.757812 218.660156 C 265.757812 218.660156 265.757812 218.683594 265.777344 218.746094 Z M 265.777344 218.746094 " fill-opacity="1" fill-rule="nonzero"/><path fill="#000000" d="M 257.804688 82.390625 C 257.890625 82.035156 252.109375 81.054688 251.859375 82.183594 C 251.605469 83.308594 253.402344 86.441406 253.609375 86.441406 C 253.820312 86.441406 257.597656 83.371094 257.804688 82.390625 Z M 257.804688 82.390625 " fill-opacity="1" fill-rule="nonzero"/><path fill="#000000" d="M 250.855469 86.417969 C 251.316406 90.132812 252.589844 98.941406 252.589844 98.941406 C 252.589844 98.941406 254.339844 95.582031 256.15625 92.136719 C 255.59375 88.964844 254.90625 85.042969 254.78125 84.519531 C 254.78125 84.519531 252.921875 83.621094 252.878906 83.476562 C 252.878906 83.394531 251.941406 84.789062 250.855469 86.417969 Z M 250.855469 86.417969 " fill-opacity="1" fill-rule="nonzero"/><path fill="#000000" d="M 260.894531 102.550781 C 260.9375 102.550781 260.976562 102.53125 261 102.511719 C 261.039062 102.488281 261.0625 102.425781 261.082031 102.386719 C 261.105469 102.28125 262.398438 92.429688 263.128906 89.425781 C 263.816406 86.566406 266.550781 83.078125 266.90625 82.828125 C 266.988281 82.789062 267.03125 82.703125 267.011719 82.621094 C 266.988281 82.515625 266.886719 82.453125 266.78125 82.472656 C 266.445312 82.558594 263.484375 86.273438 262.753906 89.339844 C 262.085938 92.117188 260.914062 100.695312 260.726562 102.136719 L 254.152344 100.632812 C 254.050781 100.613281 253.945312 100.675781 253.921875 100.777344 C 253.902344 100.882812 253.964844 100.988281 254.070312 101.007812 L 260.851562 102.574219 C 260.851562 102.550781 260.875 102.550781 260.894531 102.550781 Z M 260.894531 102.550781 " fill-opacity="1" fill-rule="nonzero"/><path fill="#000000" d="M 262.4375 113.21875 C 262.730469 113.21875 263.023438 113.195312 263.253906 113.132812 C 266.050781 112.488281 267.21875 110.589844 267.90625 109.460938 C 268.074219 109.191406 268.222656 108.9375 268.347656 108.792969 C 268.410156 108.710938 268.410156 108.585938 268.324219 108.523438 C 268.242188 108.460938 268.117188 108.460938 268.054688 108.542969 C 267.90625 108.730469 267.761719 108.980469 267.574219 109.253906 C 266.863281 110.402344 265.820312 112.132812 263.167969 112.738281 C 259.871094 113.511719 249.707031 108.144531 249.601562 108.082031 C 249.519531 108.042969 249.394531 108.0625 249.351562 108.167969 C 249.3125 108.25 249.332031 108.375 249.4375 108.417969 C 249.832031 108.648438 258.472656 113.21875 262.4375 113.21875 Z M 262.4375 113.21875 " fill-opacity="1" fill-rule="nonzero"/><path fill="#000000" d="M 241.984375 96.960938 C 241.984375 96.960938 242.007812 96.960938 242.027344 96.960938 C 242.132812 96.9375 242.195312 96.855469 242.171875 96.75 C 242.070312 96.164062 243.027344 83.832031 243.132812 83.308594 C 243.152344 83.203125 243.089844 83.101562 242.988281 83.078125 C 242.882812 83.058594 242.777344 83.121094 242.757812 83.226562 C 242.632812 83.808594 241.691406 96.164062 241.796875 96.8125 C 241.816406 96.898438 241.902344 96.960938 241.984375 96.960938 Z M 241.984375 96.960938 " fill-opacity="1" fill-rule="nonzero"/><path fill="#000000" d="M 252.609375 109.628906 L 226.457031 87.109375 C 232.21875 77.089844 230.253906 64.085938 221.175781 56.28125 C 210.886719 47.429688 195.398438 48.578125 186.550781 58.867188 C 177.699219 69.136719 178.871094 84.644531 189.136719 93.496094 C 198.21875 101.300781 211.367188 101.320312 220.402344 94.121094 L 231.714844 103.867188 L 238.605469 109.796875 L 246.554688 116.640625 C 247.433594 117.390625 248.496094 117.769531 249.582031 117.769531 C 250.875 117.769531 252.171875 117.226562 253.089844 116.160156 C 254.78125 114.21875 254.550781 111.296875 252.609375 109.628906 Z M 219.652344 87.378906 C 218.128906 89.152344 216.3125 90.59375 214.371094 91.65625 C 207.589844 95.371094 198.886719 94.726562 192.6875 89.382812 L 192.664062 89.363281 C 184.691406 82.472656 183.796875 70.390625 190.660156 62.394531 C 197.550781 54.402344 209.632812 53.503906 217.628906 60.371094 C 218.210938 60.871094 218.777344 61.414062 219.277344 61.976562 C 220.550781 63.375 221.59375 64.921875 222.367188 66.570312 C 225.582031 73.25 224.765625 81.429688 219.652344 87.378906 Z M 219.652344 87.378906 " fill-opacity="1" fill-rule="nonzero"/><path fill="#e6d06a" d="M 235.996094 99.171875 C 236.121094 99.796875 236.640625 99.796875 236.640625 99.796875 C 236.640625 99.796875 235.933594 100.152344 235.847656 100.695312 C 235.765625 101.257812 236.996094 101.34375 236.996094 101.34375 C 236.996094 101.34375 236.496094 101.53125 236.683594 102.28125 C 236.890625 103.03125 238.25 102.90625 238.25 102.90625 C 237.289062 103.679688 238.394531 104.242188 238.394531 104.242188 C 238.394531 104.242188 242.339844 103.867188 242.257812 104.140625 C 242.195312 104.410156 243.132812 105.496094 245.136719 106.664062 C 247.058594 107.8125 249.039062 107.1875 249.269531 107.207031 C 250 106.121094 251.292969 104.617188 252.171875 103.679688 C 251.253906 102.992188 245.679688 98.816406 244.488281 98.292969 C 243.195312 97.730469 239.667969 97.960938 238.332031 98.066406 C 237.039062 98.191406 235.871094 98.546875 235.996094 99.171875 Z M 235.996094 99.171875 " fill-opacity="1" fill-rule="nonzero"/><path fill="#000000" d="M 236.976562 99.714844 C 236.933594 99.671875 236.914062 99.589844 236.933594 99.527344 C 236.996094 99.402344 237.019531 99.378906 240.671875 99.339844 C 241.609375 99.316406 242.570312 99.316406 242.675781 99.296875 C 242.757812 99.253906 242.839844 99.296875 242.863281 99.378906 C 242.902344 99.464844 242.839844 99.546875 242.757812 99.589844 C 242.695312 99.609375 242.527344 99.628906 240.671875 99.652344 C 239.355469 99.671875 237.394531 99.691406 237.144531 99.734375 C 237.101562 99.757812 237.039062 99.757812 236.996094 99.734375 C 236.996094 99.734375 236.996094 99.734375 236.976562 99.714844 Z M 236.976562 99.714844 " fill-opacity="1" fill-rule="nonzero"/><path fill="#000000" d="M 237.414062 101.300781 C 237.394531 101.28125 237.371094 101.238281 237.371094 101.195312 C 237.371094 101.113281 237.433594 101.027344 237.519531 101.027344 C 241.921875 100.738281 241.921875 100.777344 241.984375 100.882812 C 242.027344 100.964844 241.984375 101.050781 241.921875 101.089844 C 241.882812 101.113281 241.839844 101.113281 241.816406 101.089844 C 241.566406 101.070312 239.085938 101.21875 237.558594 101.320312 C 237.476562 101.34375 237.433594 101.320312 237.414062 101.300781 Z M 237.414062 101.300781 " fill-opacity="1" fill-rule="nonzero"/><path fill="#000000" d="M 238.5625 102.929688 C 238.542969 102.90625 238.519531 102.867188 238.519531 102.824219 C 238.519531 102.742188 238.582031 102.65625 238.667969 102.65625 C 238.792969 102.636719 241.484375 102.363281 241.816406 102.363281 C 241.902344 102.363281 241.964844 102.425781 241.964844 102.511719 C 241.964844 102.59375 241.902344 102.65625 241.816406 102.65625 C 241.566406 102.65625 239.667969 102.84375 238.707031 102.949219 C 238.644531 102.96875 238.605469 102.949219 238.5625 102.929688 Z M 238.5625 102.929688 " fill-opacity="1" fill-rule="nonzero"/><path fill="#e6d06a" d="M 225.328125 92.867188 C 225.328125 92.867188 225.058594 93.597656 224.746094 94.539062 C 224.328125 95.75 223.847656 97.335938 223.722656 98.128906 C 223.535156 99.316406 225.539062 102.03125 226.25 102.949219 C 226.394531 103.15625 226.5 103.261719 226.5 103.261719 L 226.375 104.703125 L 230.902344 105.246094 C 230.839844 104.953125 230.796875 104.785156 230.796875 104.765625 C 230.734375 104.640625 231.089844 104.078125 231.339844 102.949219 C 231.425781 102.617188 231.339844 102.238281 231.171875 101.84375 C 230.796875 100.925781 229.984375 100.046875 229.984375 100.046875 C 229.984375 100.046875 230.316406 97.917969 230.441406 96.230469 C 230.546875 94.515625 229.546875 94.933594 229.546875 94.933594 C 229.753906 93.179688 228.210938 93.683594 228.210938 93.683594 C 228.210938 93.683594 228.210938 93.683594 228.230469 93.660156 C 228.292969 93.578125 228.417969 93.242188 227.773438 92.867188 C 227 92.429688 226.539062 93.328125 226.539062 93.328125 C 226.269531 92.285156 225.328125 92.867188 225.328125 92.867188 Z M 225.328125 92.867188 " fill-opacity="1" fill-rule="nonzero"/><path fill="#000000" d="M 225.226562 97.960938 C 225.265625 97.941406 225.308594 97.898438 225.328125 97.835938 C 225.808594 96.269531 226.5625 93.890625 226.625 93.722656 C 226.664062 93.621094 226.625 93.515625 226.539062 93.472656 C 226.4375 93.433594 226.332031 93.453125 226.269531 93.558594 C 226.25 93.578125 226.226562 93.640625 224.953125 97.730469 C 224.914062 97.835938 224.976562 97.941406 225.078125 97.980469 C 225.140625 97.980469 225.183594 97.980469 225.226562 97.960938 Z M 225.226562 97.960938 " fill-opacity="1" fill-rule="nonzero"/><path fill="#000000" d="M 226.6875 98.128906 C 226.726562 98.105469 226.769531 98.066406 226.769531 98.023438 C 227.332031 96.480469 228.1875 94.140625 228.25 94.015625 C 228.292969 93.910156 228.25 93.808594 228.167969 93.765625 C 228.0625 93.722656 227.960938 93.746094 227.898438 93.847656 C 227.898438 93.871094 227.875 93.910156 226.394531 97.898438 C 226.351562 98.003906 226.414062 98.105469 226.519531 98.148438 C 226.582031 98.148438 226.644531 98.148438 226.6875 98.128906 Z M 226.6875 98.128906 " fill-opacity="1" fill-rule="nonzero"/><path fill="#517b45" d="M 225.226562 112.089844 C 226.375 113.59375 229.359375 113.925781 232.800781 113.21875 C 235.578125 112.65625 237.664062 110.796875 238.625 109.816406 L 231.738281 103.886719 L 225.226562 103.886719 C 225.226562 103.886719 224.078125 110.589844 225.226562 112.089844 Z M 225.226562 112.089844 " fill-opacity="1" fill-rule="nonzero"/><path fill="#000000" d="M 128.859375 185.371094 L 143.011719 167.046875 C 149.921875 170.550781 158.5625 168.757812 163.488281 162.390625 C 169.039062 155.191406 167.722656 144.839844 160.503906 139.285156 C 153.300781 133.734375 142.949219 135.070312 137.398438 142.269531 C 132.492188 148.636719 132.953125 157.445312 138.085938 163.246094 L 131.972656 171.179688 L 128.257812 176 L 123.957031 181.574219 C 123.476562 182.179688 123.269531 182.929688 123.308594 183.640625 C 123.351562 184.515625 123.769531 185.351562 124.519531 185.933594 C 125.855469 186.976562 127.816406 186.726562 128.859375 185.371094 Z M 142.59375 162.496094 C 141.34375 161.535156 140.320312 160.386719 139.527344 159.113281 C 136.792969 154.691406 136.917969 148.847656 140.257812 144.503906 C 144.578125 138.910156 152.65625 137.867188 158.25 142.1875 C 163.84375 146.507812 164.886719 154.585938 160.566406 160.179688 C 160.253906 160.597656 159.898438 160.992188 159.542969 161.347656 C 158.644531 162.246094 157.664062 162.996094 156.578125 163.582031 C 152.257812 165.960938 146.75 165.710938 142.59375 162.496094 Z M 142.59375 162.496094 " fill-opacity="1" fill-rule="nonzero"/><path fill="#e6d06a" d="M 124.3125 195.179688 L 125.292969 196.578125 C 125.292969 196.578125 125.542969 194.179688 127.003906 190.566406 C 128.464844 186.957031 129.882812 185.851562 129.339844 184.871094 C 128.796875 183.890625 124.605469 182.113281 124.875 180.089844 C 125.167969 178.066406 126.566406 176.292969 128.359375 176.835938 C 130.132812 177.378906 130.761719 177.710938 130.761719 177.710938 C 130.761719 177.710938 130.09375 174.328125 131.136719 174.519531 C 132.179688 174.707031 132.242188 178.628906 132.367188 181.824219 C 132.492188 185.015625 132.492188 185.015625 132.492188 185.015625 C 132.492188 185.015625 132.617188 197.644531 129.613281 201.253906 C 126.605469 204.863281 123.183594 204.511719 121.160156 202.359375 C 119.136719 200.210938 118.925781 199.460938 118.925781 199.460938 Z M 124.3125 195.179688 " fill-opacity="1" fill-rule="nonzero"/><path fill="#000000" d="M 129.820312 179.214844 C 129.882812 179.214844 129.96875 179.171875 129.988281 179.089844 C 130.03125 179.003906 129.96875 178.902344 129.882812 178.859375 L 126.816406 177.792969 C 126.730469 177.753906 126.628906 177.816406 126.585938 177.898438 C 126.542969 177.984375 126.605469 178.085938 126.691406 178.128906 L 129.757812 179.191406 C 129.78125 179.214844 129.800781 179.214844 129.820312 179.214844 Z M 129.820312 179.214844 " fill-opacity="1" fill-rule="nonzero"/><path fill="#000000" d="M 129.320312 180.445312 C 129.402344 180.445312 129.464844 180.402344 129.488281 180.320312 C 129.507812 180.238281 129.464844 180.132812 129.382812 180.089844 L 126.085938 179.027344 C 126 179.003906 125.898438 179.046875 125.855469 179.128906 C 125.8125 179.214844 125.875 179.320312 125.960938 179.359375 L 129.257812 180.425781 C 129.300781 180.445312 129.300781 180.445312 129.320312 180.445312 Z M 129.320312 180.445312 " fill-opacity="1" fill-rule="nonzero"/><path fill="#000000" d="M 128.089844 181.78125 C 128.152344 181.78125 128.214844 181.738281 128.257812 181.675781 C 128.296875 181.59375 128.257812 181.488281 128.171875 181.445312 L 125.648438 180.257812 C 125.5625 180.214844 125.460938 180.257812 125.417969 180.339844 C 125.375 180.425781 125.417969 180.527344 125.5 180.570312 L 128.027344 181.761719 C 128.027344 181.78125 128.066406 181.78125 128.089844 181.78125 Z M 128.089844 181.78125 " fill-opacity="1" fill-rule="nonzero"/><g clip-path="url(#61d1d132f0)"><path fill="#7d9e37" d="M 47.710938 327.695312 C 48.902344 327.695312 49.945312 327.632812 50.800781 327.589844 C 49.882812 326.652344 49.007812 325.730469 48.191406 324.855469 C 46.273438 322.746094 44.5 320.679688 42.933594 318.699219 C 41.011719 318.699219 34.5625 318.09375 28.238281 310.703125 C 20.683594 301.917969 26.382812 284.554688 26.382812 284.554688 C 46.375 299.371094 45.542969 312.519531 44.246094 317.027344 C 45.917969 319.136719 47.835938 321.390625 49.964844 323.707031 C 50.761719 324.5625 51.59375 325.460938 52.492188 326.359375 C 52.597656 325.710938 52.636719 324.960938 52.660156 324.082031 C 48.714844 320.578125 41.597656 310.289062 48.589844 287.890625 C 48.589844 287.890625 63.429688 298.535156 62.53125 310.097656 C 61.632812 321.664062 54.914062 325.542969 54.914062 325.542969 C 54.914062 325.585938 54.828125 325.566406 54.664062 325.503906 C 54.578125 326.441406 54.453125 327.320312 54.246094 328.113281 C 59.148438 332.851562 65.285156 337.878906 72.425781 341.84375 C 72.714844 341.136719 72.945312 340.363281 73.09375 339.550781 C 69.441406 337.234375 59.671875 327.796875 65.828125 302.917969 C 65.828125 302.917969 81.273438 312.644531 81.085938 324.25 C 80.917969 333.265625 76.972656 337.878906 75.222656 339.464844 C 75.054688 340.699219 74.742188 341.804688 74.28125 342.828125 C 77.933594 344.703125 81.816406 346.3125 85.90625 347.4375 C 86.449219 347.585938 86.785156 348.167969 86.636719 348.710938 C 86.574219 348.941406 86.449219 349.128906 86.285156 349.253906 C 86.03125 349.441406 85.699219 349.527344 85.363281 349.441406 C 81.003906 348.230469 76.890625 346.519531 73.03125 344.496094 C 72.570312 344.828125 71.820312 345.351562 70.839844 345.914062 C 70.902344 346.039062 70.921875 346.125 70.902344 346.144531 C 70.902344 346.144531 67.601562 353.179688 56.164062 355.058594 C 44.726562 356.933594 32.851562 343.054688 32.851562 343.054688 C 55.101562 333.976562 65.953125 340.699219 69.523438 344.289062 C 70.085938 343.953125 70.585938 343.660156 71.003906 343.390625 C 63.867188 339.339844 57.710938 334.3125 52.785156 329.511719 C 51.929688 329.613281 50.050781 329.78125 47.691406 329.78125 C 46.105469 331.492188 41.449219 335.4375 32.371094 335.5 C 20.765625 335.5625 11.25 319.972656 11.25 319.972656 C 36.109375 314.167969 45.4375 324 47.710938 327.695312 Z M 47.710938 327.695312 " fill-opacity="1" fill-rule="nonzero"/></g><path fill="#517b45" d="M 206.085938 289.25 L 206.085938 349.234375 C 204.417969 353.699219 193.648438 358.0625 178.265625 358.0625 C 162.757812 358.0625 151.945312 353.636719 150.402344 349.109375 L 150.402344 289.25 Z M 206.085938 289.25 " fill-opacity="1" fill-rule="nonzero"/><path fill="#000000" d="M 206.335938 289.476562 C 206.335938 289.828125 206.292969 290.175781 206.203125 290.523438 C 206.113281 290.867188 205.980469 291.214844 205.800781 291.554688 C 205.625 291.898438 205.402344 292.234375 205.136719 292.570312 C 204.871094 292.902344 204.566406 293.230469 204.21875 293.550781 C 203.867188 293.875 203.480469 294.1875 203.050781 294.496094 C 202.617188 294.804688 202.152344 295.101562 201.644531 295.390625 C 201.136719 295.683594 200.59375 295.960938 200.015625 296.230469 C 199.4375 296.5 198.828125 296.757812 198.179688 297.003906 C 197.535156 297.25 196.863281 297.484375 196.15625 297.707031 C 195.453125 297.929688 194.71875 298.136719 193.960938 298.328125 C 193.203125 298.523438 192.421875 298.703125 191.617188 298.867188 C 190.816406 299.03125 189.992188 299.179688 189.148438 299.3125 C 188.304688 299.445312 187.449219 299.5625 186.578125 299.664062 C 185.703125 299.765625 184.820312 299.851562 183.925781 299.917969 C 183.03125 299.988281 182.128906 300.039062 181.222656 300.070312 C 180.316406 300.105469 179.40625 300.121094 178.492188 300.121094 C 177.582031 300.121094 176.671875 300.105469 175.765625 300.070312 C 174.855469 300.039062 173.957031 299.988281 173.0625 299.917969 C 172.167969 299.851562 171.285156 299.765625 170.410156 299.664062 C 169.539062 299.5625 168.679688 299.445312 167.839844 299.3125 C 166.996094 299.179688 166.171875 299.03125 165.367188 298.867188 C 164.566406 298.703125 163.785156 298.523438 163.023438 298.328125 C 162.265625 298.136719 161.535156 297.929688 160.832031 297.707031 C 160.125 297.484375 159.449219 297.25 158.804688 297.003906 C 158.160156 296.757812 157.550781 296.5 156.972656 296.230469 C 156.394531 295.960938 155.851562 295.683594 155.34375 295.390625 C 154.835938 295.101562 154.367188 294.804688 153.9375 294.496094 C 153.507812 294.1875 153.121094 293.875 152.769531 293.550781 C 152.421875 293.230469 152.113281 292.902344 151.851562 292.570312 C 151.585938 292.234375 151.363281 291.898438 151.1875 291.554688 C 151.007812 291.214844 150.875 290.867188 150.785156 290.523438 C 150.695312 290.175781 150.652344 289.828125 150.652344 289.476562 C 150.652344 289.128906 150.695312 288.78125 150.785156 288.433594 C 150.875 288.089844 151.007812 287.742188 151.1875 287.402344 C 151.363281 287.058594 151.585938 286.722656 151.851562 286.386719 C 152.113281 286.054688 152.421875 285.726562 152.769531 285.40625 C 153.121094 285.082031 153.507812 284.769531 153.9375 284.460938 C 154.367188 284.152344 154.835938 283.855469 155.34375 283.566406 C 155.851562 283.273438 156.394531 282.996094 156.972656 282.726562 C 157.550781 282.457031 158.160156 282.199219 158.804688 281.953125 C 159.449219 281.707031 160.125 281.472656 160.832031 281.25 C 161.535156 281.027344 162.265625 280.820312 163.023438 280.628906 C 163.785156 280.433594 164.566406 280.253906 165.367188 280.089844 C 166.171875 279.925781 166.996094 279.777344 167.839844 279.644531 C 168.679688 279.511719 169.539062 279.394531 170.410156 279.292969 C 171.285156 279.191406 172.167969 279.105469 173.0625 279.039062 C 173.957031 278.96875 174.855469 278.917969 175.765625 278.886719 C 176.671875 278.851562 177.582031 278.835938 178.492188 278.835938 C 179.40625 278.835938 180.316406 278.851562 181.222656 278.886719 C 182.128906 278.917969 183.03125 278.96875 183.925781 279.039062 C 184.820312 279.105469 185.703125 279.191406 186.578125 279.292969 C 187.449219 279.394531 188.304688 279.511719 189.148438 279.644531 C 189.992188 279.777344 190.816406 279.925781 191.617188 280.089844 C 192.421875 280.253906 193.203125 280.433594 193.960938 280.628906 C 194.71875 280.820312 195.453125 281.027344 196.15625 281.25 C 196.863281 281.472656 197.535156 281.707031 198.179688 281.953125 C 198.828125 282.199219 199.4375 282.457031 200.015625 282.726562 C 200.59375 282.996094 201.136719 283.273438 201.644531 283.566406 C 202.152344 283.855469 202.617188 284.152344 203.050781 284.460938 C 203.480469 284.769531 203.867188 285.082031 204.21875 285.40625 C 204.566406 285.726562 204.871094 286.054688 205.136719 286.386719 C 205.402344 286.722656 205.625 287.058594 205.800781 287.402344 C 205.980469 287.742188 206.113281 288.089844 206.203125 288.433594 C 206.292969 288.78125 206.335938 289.128906 206.335938 289.476562 Z M 206.335938 289.476562 " fill-opacity="1" fill-rule="nonzero"/><path fill="#517b45" d="M 178.492188 297.035156 C 171.523438 297.035156 164.761719 295.96875 159.917969 294.113281 C 155.679688 292.484375 153.761719 290.585938 153.761719 289.480469 C 153.761719 288.394531 155.679688 286.472656 159.917969 284.84375 C 164.761719 282.988281 171.523438 281.921875 178.492188 281.921875 C 185.464844 281.921875 192.226562 282.988281 197.070312 284.84375 C 201.304688 286.472656 203.226562 288.371094 203.226562 289.480469 C 203.226562 290.5625 201.304688 292.484375 197.070312 294.113281 C 192.226562 295.96875 185.445312 297.035156 178.492188 297.035156 Z M 155.011719 289.476562 C 155.117188 289.832031 156.308594 291.378906 160.355469 292.941406 C 165.050781 294.738281 171.667969 295.78125 178.492188 295.78125 C 185.320312 295.78125 191.914062 294.757812 196.632812 292.941406 C 200.703125 291.378906 201.871094 289.832031 201.972656 289.476562 C 201.871094 289.125 200.679688 287.578125 196.632812 286.015625 C 191.933594 284.21875 185.320312 283.175781 178.492188 283.175781 C 171.667969 283.175781 165.074219 284.199219 160.355469 286.015625 C 156.285156 287.578125 155.117188 289.125 155.011719 289.476562 Z M 155.011719 289.476562 " fill-opacity="1" fill-rule="nonzero"/><path fill="#000000" d="M 178.515625 312.582031 C 163.007812 312.582031 152.195312 308.160156 150.652344 303.628906 L 150.652344 307.574219 C 155.304688 311.9375 165.886719 314.921875 178.515625 314.921875 C 191.078125 314.921875 201.660156 311.957031 206.335938 307.59375 L 206.335938 303.734375 C 204.644531 308.222656 193.898438 312.582031 178.515625 312.582031 Z M 178.515625 312.582031 " fill-opacity="1" fill-rule="nonzero"/><path fill="#000000" d="M 178.515625 327.632812 C 163.007812 327.632812 152.195312 323.207031 150.652344 318.679688 L 150.652344 322.621094 C 155.304688 326.984375 165.886719 329.96875 178.515625 329.96875 C 191.078125 329.96875 201.660156 327.003906 206.335938 322.644531 L 206.335938 318.78125 C 204.644531 323.269531 193.898438 327.632812 178.515625 327.632812 Z M 178.515625 327.632812 " fill-opacity="1" fill-rule="nonzero"/><path fill="#000000" d="M 178.515625 342.679688 C 163.007812 342.679688 152.195312 338.253906 150.652344 333.726562 L 150.652344 337.671875 C 155.304688 342.03125 165.886719 345.019531 178.515625 345.019531 C 191.078125 345.019531 201.660156 342.054688 206.335938 337.691406 L 206.335938 333.832031 C 204.644531 338.316406 193.898438 342.679688 178.515625 342.679688 Z M 178.515625 342.679688 " fill-opacity="1" fill-rule="nonzero"/><path fill="#000000" d="M 242.089844 350.464844 C 242.089844 351.269531 242.050781 352.070312 241.972656 352.867188 C 241.894531 353.667969 241.773438 354.460938 241.617188 355.25 C 241.460938 356.039062 241.265625 356.816406 241.035156 357.585938 C 240.800781 358.351562 240.53125 359.109375 240.222656 359.851562 C 239.914062 360.59375 239.574219 361.316406 239.195312 362.027344 C 238.816406 362.734375 238.402344 363.421875 237.957031 364.089844 C 237.511719 364.757812 237.03125 365.402344 236.523438 366.023438 C 236.011719 366.644531 235.472656 367.238281 234.90625 367.804688 C 234.339844 368.375 233.746094 368.914062 233.125 369.421875 C 232.503906 369.933594 231.859375 370.410156 231.191406 370.855469 C 230.523438 371.300781 229.835938 371.714844 229.125 372.09375 C 228.417969 372.472656 227.691406 372.816406 226.949219 373.121094 C 226.207031 373.429688 225.453125 373.699219 224.683594 373.933594 C 223.914062 374.167969 223.136719 374.363281 222.351562 374.519531 C 221.5625 374.675781 220.769531 374.792969 219.96875 374.871094 C 219.171875 374.949219 218.367188 374.988281 217.566406 374.988281 C 216.761719 374.988281 215.960938 374.949219 215.160156 374.871094 C 214.363281 374.792969 213.570312 374.675781 212.78125 374.519531 C 211.992188 374.363281 211.214844 374.167969 210.445312 373.933594 C 209.679688 373.699219 208.921875 373.429688 208.179688 373.121094 C 207.4375 372.816406 206.714844 372.472656 206.003906 372.09375 C 205.296875 371.714844 204.609375 371.300781 203.941406 370.855469 C 203.273438 370.410156 202.628906 369.933594 202.007812 369.421875 C 201.386719 368.914062 200.792969 368.375 200.222656 367.804688 C 199.65625 367.238281 199.117188 366.644531 198.609375 366.023438 C 198.097656 365.402344 197.621094 364.757812 197.175781 364.089844 C 196.726562 363.421875 196.316406 362.734375 195.9375 362.027344 C 195.558594 361.316406 195.214844 360.59375 194.90625 359.851562 C 194.601562 359.109375 194.332031 358.351562 194.097656 357.585938 C 193.863281 356.816406 193.667969 356.039062 193.511719 355.25 C 193.355469 354.460938 193.238281 353.667969 193.160156 352.867188 C 193.082031 352.070312 193.042969 351.269531 193.042969 350.464844 C 193.042969 349.660156 193.082031 348.859375 193.160156 348.0625 C 193.238281 347.261719 193.355469 346.46875 193.511719 345.679688 C 193.667969 344.894531 193.863281 344.113281 194.097656 343.347656 C 194.332031 342.578125 194.601562 341.824219 194.90625 341.082031 C 195.214844 340.339844 195.558594 339.613281 195.9375 338.90625 C 196.316406 338.195312 196.726562 337.507812 197.175781 336.839844 C 197.621094 336.171875 198.097656 335.527344 198.609375 334.90625 C 199.117188 334.285156 199.65625 333.691406 200.222656 333.125 C 200.792969 332.554688 201.386719 332.015625 202.007812 331.507812 C 202.628906 331 203.273438 330.519531 203.941406 330.074219 C 204.609375 329.628906 205.296875 329.214844 206.003906 328.835938 C 206.714844 328.457031 207.4375 328.117188 208.179688 327.808594 C 208.921875 327.5 209.679688 327.230469 210.445312 326.996094 C 211.214844 326.765625 211.992188 326.570312 212.78125 326.414062 C 213.570312 326.253906 214.363281 326.136719 215.160156 326.058594 C 215.960938 325.980469 216.761719 325.941406 217.566406 325.941406 C 218.367188 325.941406 219.171875 325.980469 219.96875 326.058594 C 220.769531 326.136719 221.5625 326.253906 222.351562 326.414062 C 223.136719 326.570312 223.914062 326.765625 224.683594 326.996094 C 225.453125 327.230469 226.207031 327.5 226.949219 327.808594 C 227.691406 328.117188 228.417969 328.457031 229.125 328.835938 C 229.835938 329.214844 230.523438 329.628906 231.191406 330.074219 C 231.859375 330.519531 232.503906 331 233.125 331.507812 C 233.746094 332.015625 234.339844 332.554688 234.90625 333.125 C 235.472656 333.691406 236.011719 334.285156 236.523438 334.90625 C 237.03125 335.527344 237.511719 336.171875 237.957031 336.839844 C 238.402344 337.507812 238.816406 338.195312 239.195312 338.90625 C 239.574219 339.613281 239.914062 340.339844 240.222656 341.082031 C 240.53125 341.824219 240.800781 342.578125 241.035156 343.347656 C 241.265625 344.113281 241.460938 344.894531 241.617188 345.679688 C 241.773438 346.46875 241.894531 347.261719 241.972656 348.0625 C 242.050781 348.859375 242.089844 349.660156 242.089844 350.464844 Z M 242.089844 350.464844 " fill-opacity="1" fill-rule="nonzero"/><path fill="#517b45" d="M 237.582031 350.464844 C 237.582031 351.269531 237.542969 352.070312 237.464844 352.867188 C 237.382812 353.667969 237.265625 354.460938 237.109375 355.25 C 236.953125 356.039062 236.757812 356.816406 236.523438 357.585938 C 236.292969 358.351562 236.023438 359.109375 235.714844 359.851562 C 235.40625 360.59375 235.0625 361.316406 234.6875 362.027344 C 234.308594 362.734375 233.894531 363.421875 233.449219 364.089844 C 233.003906 364.757812 232.523438 365.402344 232.015625 366.023438 C 231.503906 366.644531 230.964844 367.238281 230.398438 367.804688 C 229.832031 368.375 229.234375 368.914062 228.613281 369.421875 C 227.996094 369.933594 227.351562 370.410156 226.683594 370.855469 C 226.015625 371.300781 225.328125 371.714844 224.617188 372.09375 C 223.910156 372.472656 223.183594 372.816406 222.441406 373.121094 C 221.699219 373.429688 220.945312 373.699219 220.175781 373.933594 C 219.40625 374.167969 218.628906 374.363281 217.839844 374.519531 C 217.054688 374.675781 216.261719 374.792969 215.460938 374.871094 C 214.660156 374.949219 213.859375 374.988281 213.058594 374.988281 C 212.253906 374.988281 211.453125 374.949219 210.652344 374.871094 C 209.855469 374.792969 209.0625 374.675781 208.273438 374.519531 C 207.484375 374.363281 206.707031 374.167969 205.9375 373.933594 C 205.167969 373.699219 204.414062 373.429688 203.671875 373.121094 C 202.929688 372.816406 202.203125 372.472656 201.496094 372.09375 C 200.789062 371.714844 200.101562 371.300781 199.433594 370.855469 C 198.765625 370.410156 198.121094 369.933594 197.5 369.421875 C 196.878906 368.914062 196.285156 368.375 195.714844 367.804688 C 195.148438 367.238281 194.609375 366.644531 194.101562 366.023438 C 193.589844 365.402344 193.113281 364.757812 192.667969 364.089844 C 192.21875 363.421875 191.808594 362.734375 191.429688 362.027344 C 191.050781 361.316406 190.707031 360.59375 190.398438 359.851562 C 190.09375 359.109375 189.824219 358.351562 189.589844 357.585938 C 189.355469 356.816406 189.160156 356.039062 189.003906 355.25 C 188.847656 354.460938 188.730469 353.667969 188.652344 352.867188 C 188.574219 352.070312 188.53125 351.269531 188.53125 350.464844 C 188.53125 349.660156 188.574219 348.859375 188.652344 348.0625 C 188.730469 347.261719 188.847656 346.46875 189.003906 345.679688 C 189.160156 344.894531 189.355469 344.113281 189.589844 343.347656 C 189.824219 342.578125 190.09375 341.824219 190.398438 341.082031 C 190.707031 340.339844 191.050781 339.613281 191.429688 338.90625 C 191.808594 338.195312 192.21875 337.507812 192.667969 336.839844 C 193.113281 336.171875 193.589844 335.527344 194.101562 334.90625 C 194.609375 334.285156 195.148438 333.691406 195.714844 333.125 C 196.285156 332.554688 196.878906 332.015625 197.5 331.507812 C 198.121094 331 198.765625 330.519531 199.433594 330.074219 C 200.101562 329.628906 200.789062 329.214844 201.496094 328.835938 C 202.203125 328.457031 202.929688 328.117188 203.671875 327.808594 C 204.414062 327.5 205.167969 327.230469 205.9375 326.996094 C 206.707031 326.765625 207.484375 326.570312 208.273438 326.414062 C 209.0625 326.253906 209.855469 326.136719 210.652344 326.058594 C 211.453125 325.980469 212.253906 325.941406 213.058594 325.941406 C 213.859375 325.941406 214.660156 325.980469 215.460938 326.058594 C 216.261719 326.136719 217.054688 326.253906 217.839844 326.414062 C 218.628906 326.570312 219.40625 326.765625 220.175781 326.996094 C 220.945312 327.230469 221.699219 327.5 222.441406 327.808594 C 223.183594 328.117188 223.910156 328.457031 224.617188 328.835938 C 225.324219 329.214844 226.015625 329.628906 226.683594 330.074219 C 227.351562 330.519531 227.996094 331 228.613281 331.507812 C 229.234375 332.015625 229.832031 332.554688 230.398438 333.125 C 230.964844 333.691406 231.503906 334.285156 232.015625 334.90625 C 232.523438 335.527344 233.003906 336.171875 233.449219 336.839844 C 233.894531 337.507812 234.308594 338.195312 234.6875 338.90625 C 235.0625 339.613281 235.40625 340.339844 235.714844 341.082031 C 236.023438 341.824219 236.292969 342.578125 236.523438 343.347656 C 236.757812 344.113281 236.953125 344.894531 237.109375 345.679688 C 237.265625 346.46875 237.382812 347.261719 237.464844 348.0625 C 237.542969 348.859375 237.582031 349.660156 237.582031 350.464844 Z M 237.582031 350.464844 " fill-opacity="1" fill-rule="nonzero"/><path fill="#000000" d="M 213.058594 372.484375 C 207.171875 372.484375 201.640625 370.1875 197.488281 366.035156 C 193.332031 361.882812 191.039062 356.351562 191.039062 350.464844 C 191.039062 344.578125 193.332031 339.046875 197.488281 334.894531 C 201.640625 330.742188 207.171875 328.445312 213.058594 328.445312 C 218.941406 328.445312 224.472656 330.742188 228.628906 334.894531 C 232.78125 339.046875 235.078125 344.578125 235.078125 350.464844 C 235.078125 356.351562 232.78125 361.882812 228.628906 366.035156 C 224.472656 370.210938 218.941406 372.484375 213.058594 372.484375 Z M 213.058594 329.449219 C 207.441406 329.449219 202.164062 331.640625 198.195312 335.605469 C 194.230469 339.570312 192.039062 344.851562 192.039062 350.464844 C 192.039062 356.078125 194.230469 361.359375 198.195312 365.324219 C 202.164062 369.292969 207.441406 371.484375 213.058594 371.484375 C 218.671875 371.484375 223.953125 369.292969 227.917969 365.324219 C 231.882812 361.359375 234.074219 356.078125 234.074219 350.464844 C 234.074219 344.851562 231.882812 339.570312 227.917969 335.605469 C 223.953125 331.640625 218.671875 329.449219 213.058594 329.449219 Z M 213.058594 329.449219 " fill-opacity="1" fill-rule="nonzero"/><path fill="#000000" d="M 214.601562 349.003906 L 214.601562 343.597656 C 216.125 343.515625 217.628906 343.578125 218.753906 343.703125 C 219.632812 343.808594 220.445312 343.160156 220.527344 342.285156 C 220.632812 341.40625 219.988281 340.59375 219.109375 340.507812 C 218.714844 340.46875 216.835938 340.28125 214.601562 340.382812 L 214.601562 337.148438 C 214.601562 336.25 213.871094 335.542969 212.996094 335.542969 C 212.117188 335.542969 211.386719 336.273438 211.386719 337.148438 L 211.386719 340.761719 C 209.757812 341.09375 208.195312 341.65625 207.109375 342.636719 C 206.042969 343.578125 205.460938 344.808594 205.4375 346.207031 C 205.375 349.753906 208.527344 350.820312 211.386719 351.550781 L 211.386719 358.3125 C 210.199219 358.25 209.132812 358.105469 208.550781 357.980469 C 207.671875 357.792969 206.816406 358.332031 206.628906 359.210938 C 206.441406 360.085938 206.984375 360.941406 207.859375 361.128906 C 208.171875 361.191406 209.59375 361.484375 211.386719 361.570312 L 211.386719 363.863281 C 211.386719 364.761719 212.117188 365.472656 212.996094 365.472656 C 213.871094 365.472656 214.601562 364.742188 214.601562 363.863281 L 214.601562 361.382812 C 215.980469 361.152344 217.335938 360.691406 218.421875 359.835938 C 219.796875 358.75 220.53125 357.164062 220.550781 355.265625 C 220.59375 351.238281 217.503906 349.816406 214.601562 349.003906 Z M 208.652344 346.226562 C 208.652344 345.726562 208.839844 345.371094 209.21875 345.019531 C 209.71875 344.578125 210.46875 344.265625 211.367188 344.035156 L 211.367188 348.167969 C 209.363281 347.605469 208.632812 347.125 208.652344 346.226562 Z M 216.398438 357.269531 C 215.917969 357.644531 215.289062 357.894531 214.582031 358.0625 L 214.582031 352.386719 C 216.4375 353.011719 217.316406 353.722656 217.292969 355.183594 C 217.292969 356.121094 217.023438 356.789062 216.398438 357.269531 Z M 216.398438 357.269531 " fill-opacity="1" fill-rule="nonzero"/></svg>